<?xml version="1.0" standalone="no"?>
<!DOCTYPE svg PUBLIC "-//W3C//DTD SVG 20010904//EN"
 "http://www.w3.org/TR/2001/REC-SVG-20010904/DTD/svg10.dtd">
<svg version="1.0" xmlns="http://www.w3.org/2000/svg"
 width="500.000000pt" height="615.000000pt" viewBox="0 0 500.000000 615.000000"
 preserveAspectRatio="xMidYMid meet">

<g transform="translate(0.000000,615.000000) scale(0.100000,-0.100000)"
fill="#000000" stroke="none">
<path d="M3570 6130 c-229 -48 -471 -174 -652 -340 -201 -182 -365 -468 -417
-727 -20 -97 -29 -272 -15 -307 15 -39 194 -26 346 24 243 81 458 239 621 456
82 108 187 316 222 439 45 157 67 354 49 444 -6 27 -11 31 -38 30 -17 0 -69
-9 -116 -19z"/>
<path d="M3520 4659 c-169 -14 -323 -58 -674 -193 -297 -115 -331 -113 -716
37 -113 44 -257 93 -320 110 -103 27 -131 30 -270 31 -238 1 -413 -39 -625
-144 -580 -287 -916 -905 -915 -1685 1 -595 201 -1298 525 -1844 66 -112 232
-348 333 -475 274 -344 491 -486 742 -486 140 0 225 22 480 126 244 98 409
132 597 120 179 -10 271 -36 558 -156 135 -56 245 -80 375 -80 164 0 283 37
421 131 239 162 594 634 799 1062 61 128 170 400 170 426 0 5 -10 13 -22 16
-13 4 -59 28 -103 53 -304 173 -541 455 -635 758 -40 129 -51 199 -57 360 -6
178 3 272 43 424 30 113 113 291 186 397 74 108 216 253 330 338 l98 73 -36
49 c-49 66 -176 194 -250 254 -268 214 -663 328 -1034 298z"/>
</g>
</svg>
